# xmcd
#
# Track frame offsets:
#	150
#	14529
#	26878
#	41452
#	58376
#	76917
#	88789
#	104087
#	115511
#	126476
#	140126
#	153802
#	166900
#	185919
#	200519
#	214257
#
# Disc length: 3100 seconds
#
# Revision: 1
# Processed by: cddbd v1.5.2PL0 Copyright (c) Steve Scherf et al.
# Submitted via: audiograbber 1.83.01
#
DISCID=ed0c1a10
DTITLE=Michael English - My World
DYEAR=1999
DGENRE=Country
TTITLE0=Tonight Carmen
TTITLE1=Behind Closed Doors
TTITLE2=Could I Have This Dance
TTITLE3=Midnight To Moonlight
TTITLE4=Windows In Heaven
TTITLE5=4033
TTITLE6=Those Brown Eyes
TTITLE7=You're Breaking My Heart
TTITLE8=Snowbird
TTITLE9=I'm A Fool
TTITLE10=We All Get Lucky Sometimes
TTITLE11=Footprints In The Snow
TTITLE12=Limerick You're A Lady
TTITLE13=Happy Anniversary
TTITLE14=My World
TTITLE15=Abide With Me
EXTD=
EXTT0=
EXTT1=
EXTT2=
EXTT3=
EXTT4=
EXTT5=
EXTT6=
EXTT7=
EXTT8=
EXTT9=
EXTT10=
EXTT11=
EXTT12=
EXTT13=
EXTT14=
EXTT15=
PLAYORDER=
